<svg width="128" height="128" viewBox="0 0 128 128" fill="none" xmlns="http://www.w3.org/2000/svg">
<g clip-path="url(#clip0_16_175)">
<path d="M128 64C128 99.3462 99.3462 128 64 128C28.6538 128 0 99.3462 0 64C0 28.6538 28.6538 0 64 0C99.3462 0 128 28.6538 128 64Z" fill="url(#paint0_radial_16_175)"/>
<path fill-rule="evenodd" clip-rule="evenodd" d="M29.2329 23.7627C29.2322 23.7617 29.2316 23.7608 33.2598 20.8817C37.2881 18.0025 37.2876 18.0018 37.2871 18.0012L37.2906 18.0061L37.3162 18.0415C37.3409 18.0755 37.3806 18.13 37.4348 18.2037C37.5432 18.3512 37.7094 18.5751 37.9289 18.8646C38.3683 19.4439 39.0194 20.2832 39.8462 21.2953C41.5059 23.3272 43.8431 26.0184 46.5721 28.6913C49.3188 31.3814 52.352 33.9438 55.3952 35.8067C58.4938 37.7036 61.1954 38.6242 63.3808 38.6242C65.5662 38.6242 68.2678 37.7036 71.3664 35.8067C74.4095 33.9438 77.4428 31.3814 80.1895 28.6913C82.9185 26.0184 85.2557 23.3272 86.9154 21.2953C87.7422 20.2832 88.3932 19.4439 88.8326 18.8646C89.0522 18.5751 89.2184 18.3512 89.3268 18.2037C89.381 18.13 89.4207 18.0755 89.4453 18.0415L89.4709 18.0061L89.4744 18.0012C89.474 18.0018 89.4735 18.0025 93.5017 20.8817C97.53 23.7608 97.5293 23.7617 97.5286 23.7627L97.5269 23.7651L97.5224 23.7714L97.5089 23.7902L97.4642 23.8521C97.4266 23.904 97.3735 23.9768 97.3055 24.0693C97.1695 24.2543 96.9737 24.518 96.7226 24.849C96.2207 25.5108 95.4959 26.4445 94.5848 27.5599C92.7688 29.7831 90.1823 32.7654 87.1186 35.766C84.0726 38.7493 80.4445 41.8604 76.5367 44.2526C72.6845 46.6108 68.1458 48.5269 63.3808 48.5269C58.6158 48.5269 54.0771 46.6108 50.2249 44.2526C46.3171 41.8604 42.6889 38.7493 39.6429 35.766C36.5793 32.7654 33.9927 29.7831 32.1767 27.5599C31.2657 26.4445 30.5409 25.5108 30.039 24.849C29.7879 24.518 29.592 24.2543 29.456 24.0693C29.388 23.9768 29.335 23.904 29.2974 23.8521L29.2527 23.7902L29.2392 23.7714L29.2329 23.7627ZM37.2865 18.0003C37.2862 17.9999 37.2862 18 37.2865 18.0003Z" fill="white" fill-opacity="0.8"/>
<path fill-rule="evenodd" clip-rule="evenodd" d="M30.0591 104.237C30.0584 104.238 30.0578 104.239 34.086 107.118C38.1143 109.997 38.1138 109.998 38.1133 109.999L38.1168 109.994L38.1424 109.959C38.167 109.925 38.2067 109.87 38.2609 109.796C38.3693 109.649 38.5356 109.425 38.7551 109.135C39.1945 108.556 39.8456 107.717 40.6723 106.705C42.332 104.673 44.6693 101.982 47.3983 99.3087C50.1449 96.6186 53.1782 94.0562 56.2213 92.1933C59.3199 90.2964 62.0216 89.3758 64.207 89.3758C66.3923 89.3758 69.094 90.2964 72.1926 92.1933C75.2357 94.0562 78.269 96.6186 81.0156 99.3087C83.7446 101.982 86.0819 104.673 87.7416 106.705C88.5683 107.717 89.2194 108.556 89.6588 109.135C89.8784 109.425 90.0446 109.649 90.153 109.796C90.2072 109.87 90.2469 109.925 90.2715 109.959L90.2971 109.994L90.3006 109.999C90.3002 109.998 90.2996 109.997 94.3279 107.118C98.3561 104.239 98.3555 104.238 98.3548 104.237L98.3531 104.235L98.3486 104.229L98.3351 104.21L98.2904 104.148C98.2528 104.096 98.1997 104.023 98.1317 103.931C97.9957 103.746 97.7999 103.482 97.5488 103.151C97.0468 102.489 96.3221 101.556 95.411 100.44C93.595 98.2169 91.0084 95.2346 87.9448 92.234C84.8988 89.2507 81.2706 86.1396 77.3629 83.7474C73.5106 81.3892 68.972 79.4731 64.207 79.4731C59.442 79.4731 54.9033 81.3892 51.051 83.7474C47.1433 86.1396 43.5151 89.2507 40.4691 92.234C37.4055 95.2346 34.8189 98.2169 33.0029 100.44C32.0918 101.556 31.3671 102.489 30.8652 103.151C30.614 103.482 30.4182 103.746 30.2822 103.931C30.2142 104.023 30.1611 104.096 30.1236 104.148L30.0788 104.21L30.0653 104.229L30.0591 104.237ZM38.1126 110C38.1124 110 38.1124 110 38.1126 110Z" fill="white" fill-opacity="0.8"/>
<path fill-rule="evenodd" clip-rule="evenodd" d="M104.237 97.5292C104.238 97.5299 104.239 97.5305 107.118 93.5022C109.997 89.474 109.998 89.4745 109.999 89.4749L109.994 89.4714L109.959 89.4459C109.925 89.4212 109.87 89.3815 109.796 89.3273C109.649 89.2189 109.425 89.0527 109.135 88.8332C108.556 88.3937 107.717 87.7427 106.705 86.9159C104.673 85.2562 101.982 82.919 99.3087 80.19C96.6186 77.4433 94.0562 74.41 92.1933 71.3669C90.2964 68.2683 89.3758 65.5667 89.3758 63.3813C89.3758 61.1959 90.2964 58.4943 92.1933 55.3957C94.0562 52.3526 96.6186 49.3193 99.3087 46.5726C101.982 43.8436 104.673 41.5064 106.705 39.8467C107.717 39.0199 108.556 38.3689 109.135 37.9294C109.425 37.7099 109.649 37.5437 109.796 37.4353C109.87 37.3811 109.925 37.3414 109.959 37.3167L109.994 37.2912L109.999 37.2877C109.998 37.2881 109.997 37.2886 107.118 33.2604C104.239 29.2321 104.238 29.2328 104.237 29.2334L104.235 29.2351L104.229 29.2397L104.21 29.2532L104.148 29.2979C104.096 29.3355 104.023 29.3886 103.931 29.4566C103.746 29.5925 103.482 29.7884 103.151 30.0395C102.489 30.5414 101.556 31.2662 100.44 32.1773C98.2169 33.9932 95.2346 36.5798 92.234 39.6435C89.2507 42.6895 86.1396 46.3176 83.7474 50.2254C81.3892 54.0776 79.4731 58.6163 79.4731 63.3813C79.4731 68.1463 81.3892 72.685 83.7474 76.5372C86.1396 80.445 89.2507 84.0731 92.234 87.1191C95.2346 90.1828 98.2169 92.7694 100.44 94.5853C101.556 95.4964 102.489 96.2212 103.151 96.7231C103.482 96.9742 103.746 97.1701 103.931 97.306C104.023 97.374 104.096 97.4271 104.148 97.4647L104.21 97.5094L104.229 97.5229L104.237 97.5292ZM110 89.4756C110 89.4759 110 89.4758 110 89.4756Z" fill="white" fill-opacity="0.8"/>
<path fill-rule="evenodd" clip-rule="evenodd" d="M23.7627 30.0584C23.7617 30.0577 23.7608 30.0571 20.8817 34.0853C18.0025 38.1136 18.0018 38.1131 18.0012 38.1126L18.0061 38.1161L18.0415 38.1417C18.0755 38.1664 18.13 38.2061 18.2037 38.2603C18.3512 38.3687 18.5751 38.5349 18.8646 38.7544C19.4439 39.1938 20.2832 39.8449 21.2953 40.6717C23.3272 42.3314 26.0184 44.6686 28.6913 47.3976C31.3814 50.1443 33.9438 53.1775 35.8067 56.2207C37.7036 59.3193 38.6242 62.0209 38.6242 64.2063C38.6242 66.3917 37.7036 69.0933 35.8067 72.1919C33.9438 75.235 31.3814 78.2683 28.6913 81.015C26.0184 83.744 23.3272 86.0812 21.2953 87.7409C20.2832 88.5677 19.4439 89.2187 18.8646 89.6581C18.5751 89.8777 18.3512 90.0439 18.2037 90.1523C18.13 90.2065 18.0755 90.2462 18.0415 90.2708L18.0061 90.2964L18.0012 90.2999C18.0018 90.2995 18.0025 90.299 20.8817 94.3272C23.7608 98.3555 23.7617 98.3548 23.7627 98.3541L23.7651 98.3524L23.7714 98.3479L23.7902 98.3344L23.8521 98.2897C23.904 98.2521 23.9768 98.199 24.0693 98.131C24.2543 97.995 24.5179 97.7992 24.849 97.5481C25.5108 97.0462 26.4445 96.3214 27.5599 95.4103C29.7831 93.5943 32.7654 91.0078 35.766 87.9441C38.7493 84.8981 41.8604 81.27 44.2526 77.3622C46.6108 73.51 48.5269 68.9713 48.5269 64.2063C48.5269 59.4413 46.6108 54.9026 44.2526 51.0504C41.8604 47.1426 38.7493 43.5144 35.766 40.4685C32.7654 37.4048 29.7831 34.8182 27.5599 33.0022C26.4445 32.0912 25.5108 31.3664 24.849 30.8645C24.518 30.6134 24.2543 30.4175 24.0693 30.2815C23.9768 30.2135 23.904 30.1605 23.8521 30.1229L23.7902 30.0782L23.7714 30.0647L23.7627 30.0584ZM18.0003 38.112C17.9999 38.1117 18 38.1117 18.0003 38.112Z" fill="white" fill-opacity="0.8"/>
</g>
<defs>
<radialGradient id="paint0_radial_16_175" cx="0" cy="0" r="1" gradientUnits="userSpaceOnUse" gradientTransform="translate(31.5 14.5) rotate(47.7758) scale(116.81)">
<stop offset="0.450191" stop-color="#FFB047"/>
<stop offset="1" stop-color="#F56945"/>
</radialGradient>
<clipPath id="clip0_16_175">
<rect width="128" height="128" fill="white"/>
</clipPath>
</defs>
</svg>
