<svg width="64" height="64" fill="none" xmlns="http://www.w3.org/2000/svg"><path d="M64 32c0 17.673-14.327 32-32 32C14.327 64 0 49.673 0 32 0 14.327 14.327 0 32 0c17.673 0 32 14.327 32 32Z" fill="url(#a)"/><path fill-rule="evenodd" clip-rule="evenodd" d="m14.616 11.881 2.014-1.44L18.643 9l.002.002.013.018.06.08c.053.075.137.187.246.331a45.958 45.958 0 0 0 4.322 4.913c1.373 1.346 2.89 2.627 4.412 3.558 1.549.949 2.9 1.41 3.992 1.41 1.093 0 2.444-.461 3.993-1.41 1.522-.931 3.038-2.212 4.412-3.557a45.98 45.98 0 0 0 4.627-5.325l.013-.018.002-.002 2.014 1.44 2.013 1.44v.002l-.003.003-.007.01-.022.03a25.687 25.687 0 0 1-.37.498 50.9 50.9 0 0 1-4.802 5.458c-1.524 1.493-3.338 3.048-5.292 4.244-1.926 1.18-4.195 2.137-6.578 2.137-2.382 0-4.652-.958-6.578-2.137-1.954-1.196-3.768-2.751-5.29-4.243a50.9 50.9 0 0 1-5.173-5.957l-.023-.03-.006-.01-.004-.005Zm4.027-2.88c0-.001 0-.001 0 0ZM15.03 52.118c0 .001-.001.002 2.013 1.441l2.014 1.44.001-.002.013-.017.06-.082a43.75 43.75 0 0 1 1.206-1.546 45.98 45.98 0 0 1 3.362-3.698c1.373-1.345 2.89-2.626 4.411-3.557 1.55-.949 2.9-1.41 3.993-1.41s2.444.461 3.993 1.41c1.522.931 3.038 2.212 4.412 3.557a45.98 45.98 0 0 1 4.568 5.244l.06.081.012.018.002.002 2.014-1.44 2.013-1.44v-.002l-.003-.002-.007-.01-.022-.031a48.75 48.75 0 0 0-1.44-1.854 50.918 50.918 0 0 0-3.733-4.103c-1.523-1.492-3.337-3.047-5.29-4.243-1.927-1.18-4.196-2.137-6.579-2.137-2.382 0-4.652.958-6.578 2.137-1.953 1.196-3.768 2.751-5.29 4.243a50.918 50.918 0 0 0-5.173 5.957l-.023.031-.006.01-.004.003ZM19.055 55ZM52.118 48.765l1.44-2.014L55 44.737l-.002-.001-.018-.013-.081-.06a43.558 43.558 0 0 1-1.545-1.206 45.98 45.98 0 0 1-3.699-3.362c-1.345-1.373-2.626-2.89-3.558-4.411-.948-1.55-1.408-2.9-1.408-3.993s.46-2.444 1.408-3.993c.932-1.522 2.213-3.038 3.558-4.412a45.957 45.957 0 0 1 5.325-4.628l.018-.012.002-.002-1.44-2.014a512.717 512.717 0 0 0-1.44-2.013h-.002l-.003.003-.01.007-.03.022a48.37 48.37 0 0 0-1.854 1.44 50.88 50.88 0 0 0-4.103 3.733c-1.492 1.523-3.047 3.337-4.243 5.29-1.18 1.927-2.138 4.196-2.138 6.579 0 2.382.959 4.652 2.138 6.578 1.196 1.953 2.751 3.768 4.243 5.29a50.918 50.918 0 0 0 5.957 5.173l.03.023.01.006.004.004ZM55 44.738ZM11.881 15.03c0-.001 0-.002-1.44 2.013L9 19.056l.002.002.018.013.08.06a43.26 43.26 0 0 1 1.546 1.206 45.946 45.946 0 0 1 3.699 3.362c1.345 1.373 2.626 2.89 3.557 4.411.949 1.55 1.41 2.9 1.41 3.993s-.461 2.444-1.41 3.993c-.931 1.522-2.212 3.038-3.557 4.412a45.924 45.924 0 0 1-5.325 4.627l-.018.013-.002.002 1.44 2.014 1.44 2.013h.002l.003-.003.01-.007.03-.022.109-.08a48.096 48.096 0 0 0 1.745-1.36 50.881 50.881 0 0 0 4.103-3.733c1.492-1.523 3.047-3.337 4.243-5.29 1.18-1.927 2.137-4.196 2.137-6.579 0-2.382-.958-4.652-2.137-6.578-1.196-1.954-2.751-3.768-4.243-5.29a50.9 50.9 0 0 0-5.957-5.174l-.03-.022-.01-.007-.005-.003Zm-2.88 4.026c-.001 0-.001 0 0 0Z" fill="#fff" fill-opacity=".8"/><defs><linearGradient id="a" x1="11.5" y1="53.5" x2="50.5" y2="7.5" gradientUnits="userSpaceOnUse"><stop offset=".45" stop-color="#0B7369"/><stop offset="1" stop-color="#43C6AC"/></linearGradient></defs></svg>
